#N canvas 519 231 745 376 10;
#X obj 11 260 packOSC;
#X obj 11 318 udpsend;
#X obj 73 284 loadbang;
#X obj 89 39 hsl 128 15 0 1 0 0 empty empty empty -2 -8 0 10 -262144
-1 -1 1400 1;
#X obj 89 54 hsl 128 15 0 1 0 0 empty empty empty -2 -8 0 10 -262144
-1 -1 1200 1;
#X obj 50 53 t b f;
#X obj 11 347 tgl 15 0 empty empty empty 17 7 0 10 -262144 -1 -1 1
1;
#X obj 89 71 hsl 128 15 0 1 0 0 empty empty empty -2 -8 0 10 -262144
-1 -1 1100 1;
#X obj 50 70 t b f;
#X obj 89 88 hsl 128 15 0 1 0 0 empty empty empty -2 -8 0 10 -262144
-1 -1 4600 1;
#X obj 50 87 t b f;
#X obj 89 105 hsl 128 15 0 1 0 0 empty empty empty -2 -8 0 10 -262144
-1 -1 3500 1;
#X obj 50 104 t b f;
#X obj 89 122 hsl 128 15 0 1 0 0 empty empty empty -2 -8 0 10 -262144
-1 -1 5800 1;
#X obj 50 121 t b f;
#X obj -13 169 pack f f f f f f f;
#X obj 89 139 hsl 128 15 0 1 0 0 empty empty empty -2 -8 0 10 -262144
-1 -1 1500 1;
#X obj 50 138 t b f;
#X msg 11 191 sendtyped /gpp/cre8 ifffffff 0 1 1 1 1 1 1 1;
#X msg 11 208 sendtyped /gpp/upd8 ifffffff 0 \$1 \$2 \$3 \$4 \$5 \$6
\$7;
#X msg 11 224 sendtyped /gpp/del8 ifffffff 0 1 1 1 1 1 1 1;
#X obj 440 43 hsl 128 15 0 1 0 0 empty empty empty -2 -8 0 10 -262144
-1 -1 0 1;
#X obj 440 58 hsl 128 15 0 1 0 0 empty empty empty -2 -8 0 10 -262144
-1 -1 0 1;
#X obj 401 57 t b f;
#X obj 440 75 hsl 128 15 0 1 0 0 empty empty empty -2 -8 0 10 -262144
-1 -1 0 1;
#X obj 401 74 t b f;
#X obj 440 92 hsl 128 15 0 1 0 0 empty empty empty -2 -8 0 10 -262144
-1 -1 0 1;
#X obj 401 91 t b f;
#X obj 440 109 hsl 128 15 0 1 0 0 empty empty empty -2 -8 0 10 -262144
-1 -1 0 1;
#X obj 401 108 t b f;
#X obj 440 126 hsl 128 15 0 1 0 0 empty empty empty -2 -8 0 10 -262144
-1 -1 0 1;
#X obj 401 125 t b f;
#X obj 338 173 pack f f f f f f f;
#X obj 440 143 hsl 128 15 0 1 0 0 empty empty empty -2 -8 0 10 -262144
-1 -1 0 1;
#X obj 401 142 t b f;
#X msg 362 195 sendtyped /gpp/cre8 ifffffff 1 1 1 1 1 1 1 1;
#X msg 362 212 sendtyped /gpp/upd8 ifffffff 1 \$1 \$2 \$3 \$4 \$5 \$6
\$7;
#X msg 362 228 sendtyped /gpp/del8 ifffffff 1 1 1 1 1 1 1 1;
#X msg 73 301 connect 127.0.0.1 8327;
#X msg 73 318 disconnect;
#X connect 0 0 1 0;
#X connect 1 0 6 0;
#X connect 2 0 38 0;
#X connect 3 0 15 0;
#X connect 4 0 5 0;
#X connect 5 0 15 0;
#X connect 5 1 15 1;
#X connect 7 0 8 0;
#X connect 8 0 15 0;
#X connect 8 1 15 2;
#X connect 9 0 10 0;
#X connect 10 0 15 0;
#X connect 10 1 15 3;
#X connect 11 0 12 0;
#X connect 12 0 15 0;
#X connect 12 1 15 4;
#X connect 13 0 14 0;
#X connect 14 0 15 0;
#X connect 14 1 15 5;
#X connect 15 0 19 0;
#X connect 16 0 17 0;
#X connect 17 0 15 0;
#X connect 17 1 15 6;
#X connect 18 0 0 0;
#X connect 19 0 0 0;
#X connect 20 0 0 0;
#X connect 21 0 32 0;
#X connect 22 0 23 0;
#X connect 23 0 32 0;
#X connect 23 1 32 1;
#X connect 24 0 25 0;
#X connect 25 0 32 0;
#X connect 25 1 32 2;
#X connect 26 0 27 0;
#X connect 27 0 32 0;
#X connect 27 1 32 3;
#X connect 28 0 29 0;
#X connect 29 0 32 0;
#X connect 29 1 32 4;
#X connect 30 0 31 0;
#X connect 31 0 32 0;
#X connect 31 1 32 5;
#X connect 32 0 36 0;
#X connect 33 0 34 0;
#X connect 34 0 32 0;
#X connect 34 1 32 6;
#X connect 35 0 0 0;
#X connect 36 0 0 0;
#X connect 37 0 0 0;
#X connect 38 0 1 0;
#X connect 39 0 1 0;
