#N canvas 1017 229 745 376 10;
#X obj 11 260 packOSC;
#X msg 73 301 connect 127.0.0.1 8000;
#X obj 11 318 udpsend;
#X obj 73 284 loadbang;
#X obj 89 39 hsl 128 15 0 1 0 0 empty empty empty -2 -8 0 10 -262144
-1 -1 0 1;
#X obj 89 54 hsl 128 15 0 1 0 0 empty empty empty -2 -8 0 10 -262144
-1 -1 12700 1;
#X obj 50 53 t b f;
#X obj 11 347 tgl 15 0 empty empty empty 17 7 0 10 -262144 -1 -1 1
1;
#X obj 89 71 hsl 128 15 0 1 0 0 empty empty empty -2 -8 0 10 -262144
-1 -1 1200 1;
#X obj 50 70 t b f;
#X obj 89 88 hsl 128 15 0 1 0 0 empty empty empty -2 -8 0 10 -262144
-1 -1 0 1;
#X obj 50 87 t b f;
#X obj 89 105 hsl 128 15 0 1 0 0 empty empty empty -2 -8 0 10 -262144
-1 -1 1800 1;
#X obj 50 104 t b f;
#X obj 89 122 hsl 128 15 0 1 0 0 empty empty empty -2 -8 0 10 -262144
-1 -1 2300 1;
#X obj 50 121 t b f;
#X obj -13 169 pack f f f f f f f;
#X obj 89 139 hsl 128 15 0 1 0 0 empty empty empty -2 -8 0 10 -262144
-1 -1 3100 1;
#X obj 50 138 t b f;
#X msg 11 191 sendtyped /gpp/cre8 ifffffff 0 1 1 1 1 1 1 1;
#X msg 11 208 sendtyped /gpp/upd8 ifffffff 0 \$1 \$2 \$3 \$4 \$5 \$6
\$7;
#X msg 11 224 sendtyped /gpp/del8 ifffffff 0 1 1 1 1 1 1 1;
#X obj 440 43 hsl 128 15 0 1 0 0 empty empty empty -2 -8 0 10 -262144
-1 -1 4300 1;
#X obj 440 58 hsl 128 15 0 1 0 0 empty empty empty -2 -8 0 10 -262144
-1 -1 300 1;
#X obj 401 57 t b f;
#X obj 440 75 hsl 128 15 0 1 0 0 empty empty empty -2 -8 0 10 -262144
-1 -1 12700 1;
#X obj 401 74 t b f;
#X obj 440 92 hsl 128 15 0 1 0 0 empty empty empty -2 -8 0 10 -262144
-1 -1 400 1;
#X obj 401 91 t b f;
#X obj 440 109 hsl 128 15 0 1 0 0 empty empty empty -2 -8 0 10 -262144
-1 -1 800 1;
#X obj 401 108 t b f;
#X obj 440 126 hsl 128 15 0 1 0 0 empty empty empty -2 -8 0 10 -262144
-1 -1 7100 1;
#X obj 401 125 t b f;
#X obj 338 173 pack f f f f f f f;
#X obj 440 143 hsl 128 15 0 1 0 0 empty empty empty -2 -8 0 10 -262144
-1 -1 2800 1;
#X obj 401 142 t b f;
#X msg 362 195 sendtyped /gpp/cre8 ifffffff 1 1 1 1 1 1 1 1;
#X msg 362 212 sendtyped /gpp/upd8 ifffffff 1 \$1 \$2 \$3 \$4 \$5 \$6
\$7;
#X msg 362 228 sendtyped /gpp/del8 ifffffff 1 1 1 1 1 1 1 1;
#X connect 0 0 2 0;
#X connect 1 0 2 0;
#X connect 2 0 7 0;
#X connect 3 0 1 0;
#X connect 4 0 16 0;
#X connect 5 0 6 0;
#X connect 6 0 16 0;
#X connect 6 1 16 1;
#X connect 8 0 9 0;
#X connect 9 0 16 0;
#X connect 9 1 16 2;
#X connect 10 0 11 0;
#X connect 11 0 16 0;
#X connect 11 1 16 3;
#X connect 12 0 13 0;
#X connect 13 0 16 0;
#X connect 13 1 16 4;
#X connect 14 0 15 0;
#X connect 15 0 16 0;
#X connect 15 1 16 5;
#X connect 16 0 20 0;
#X connect 17 0 18 0;
#X connect 18 0 16 0;
#X connect 18 1 16 6;
#X connect 19 0 0 0;
#X connect 20 0 0 0;
#X connect 21 0 0 0;
#X connect 22 0 33 0;
#X connect 23 0 24 0;
#X connect 24 0 33 0;
#X connect 24 1 33 1;
#X connect 25 0 26 0;
#X connect 26 0 33 0;
#X connect 26 1 33 2;
#X connect 27 0 28 0;
#X connect 28 0 33 0;
#X connect 28 1 33 3;
#X connect 29 0 30 0;
#X connect 30 0 33 0;
#X connect 30 1 33 4;
#X connect 31 0 32 0;
#X connect 32 0 33 0;
#X connect 32 1 33 5;
#X connect 33 0 37 0;
#X connect 34 0 35 0;
#X connect 35 0 33 0;
#X connect 35 1 33 6;
#X connect 36 0 0 0;
#X connect 37 0 0 0;
#X connect 38 0 0 0;
